{
	"asset":{
		"generator":"Khronos glTF Blender I/O v3.5.30",
		"version":"2.0"
	},
	"scene":0,
	"scenes":[
		{
			"name":"Scene",
			"nodes":[
				0
			]
		}
	],
	"nodes":[
		{
			"mesh":0,
			"name":"Cube",
			"scale":[
				150,
				15,
				150
			]
		}
	],
	"materials":[
		{
			"doubleSided":true,
			"name":"Material",
			"pbrMetallicRoughness":{
				"baseColorFactor":[
					0.800000011920929,
					0.800000011920929,
					0.800000011920929,
					1
				],
				"metallicFactor":0,
				"roughnessFactor":0.5
			}
		}
	],
	"meshes":[
		{
			"name":"Cube",
			"primitives":[
				{
					"attributes":{
						"POSITION":0,
						"TEXCOORD_0":1,
						"NORMAL":2
					},
					"indices":3,
					"material":0
				}
			]
		}
	],
	"accessors":[
		{
			"bufferView":0,
			"componentType":5126,
			"count":53361,
			"max":[
				1.0361640453338623,
				4.766003608703613,
				1.0545927286148071
			],
			"min":[
				-1.0047757625579834,
				-1,
				-1
			],
			"type":"VEC3"
		},
		{
			"bufferView":1,
			"componentType":5126,
			"count":53361,
			"type":"VEC2"
		},
		{
			"bufferView":2,
			"componentType":5126,
			"count":53361,
			"type":"VEC3"
		},
		{
			"bufferView":3,
			"componentType":5123,
			"count":147756,
			"type":"SCALAR"
		}
	],
	"bufferViews":[
		{
			"buffer":0,
			"byteLength":640332,
			"byteOffset":0,
			"target":34962
		},
		{
			"buffer":0,
			"byteLength":426888,
			"byteOffset":640332,
			"target":34962
		},
		{
			"buffer":0,
			"byteLength":640332,
			"byteOffset":1067220,
			"target":34962
		},
		{
			"buffer":0,
			"byteLength":295512,
			"byteOffset":1707552,
			"target":34963
		}
	],
	"buffers":[
		{
			"byteLength":2003064,
			"uri":"data:application/octet-stream;base64,"
		}
	]
}
